<svg id="visual" viewBox="0 0 500 500" width="500" height="500" xmlns="http://www.w3.org/2000/svg" xmlns:xlink="http://www.w3.org/1999/xlink" version="1.1"><rect x="0" y="0" width="500" height="500" fill="#10b981"></rect><path d="M0 166L9.3 167C18.7 168 37.3 170 55.8 171C74.3 172 92.7 172 111.2 164.8C129.7 157.7 148.3 143.3 166.8 145.8C185.3 148.3 203.7 167.7 222.2 170.2C240.7 172.7 259.3 158.3 277.8 145.3C296.3 132.3 314.7 120.7 333.2 119C351.7 117.3 370.3 125.7 388.8 122.3C407.3 119 425.7 104 444.2 106.2C462.7 108.3 481.3 127.7 490.7 137.3L500 147L500 501L490.7 501C481.3 501 462.7 501 444.2 501C425.7 501 407.3 501 388.8 501C370.3 501 351.7 501 333.2 501C314.7 501 296.3 501 277.8 501C259.3 501 240.7 501 222.2 501C203.7 501 185.3 501 166.8 501C148.3 501 129.7 501 111.2 501C92.7 501 74.3 501 55.8 501C37.3 501 18.7 501 9.3 501L0 501Z" fill="#10b981"></path><path d="M0 178L9.3 176.5C18.7 175 37.3 172 55.8 171C74.3 170 92.7 171 111.2 178.5C129.7 186 148.3 200 166.8 210.7C185.3 221.3 203.7 228.7 222.2 217.8C240.7 207 259.3 178 277.8 164C296.3 150 314.7 151 333.2 162.8C351.7 174.7 370.3 197.3 388.8 195C407.3 192.7 425.7 165.3 444.2 154C462.7 142.7 481.3 147.3 490.7 149.7L500 152L500 501L490.7 501C481.3 501 462.7 501 444.2 501C425.7 501 407.3 501 388.8 501C370.3 501 351.7 501 333.2 501C314.7 501 296.3 501 277.8 501C259.3 501 240.7 501 222.2 501C203.7 501 185.3 501 166.8 501C148.3 501 129.7 501 111.2 501C92.7 501 74.3 501 55.8 501C37.3 501 18.7 501 9.3 501L0 501Z" fill="#00ad7f"></path><path d="M0 270L9.3 257.7C18.7 245.3 37.3 220.7 55.8 218.3C74.3 216 92.7 236 111.2 245.8C129.7 255.7 148.3 255.3 166.8 247C185.3 238.7 203.7 222.3 222.2 223.3C240.7 224.3 259.3 242.7 277.8 248.2C296.3 253.7 314.7 246.3 333.2 247.8C351.7 249.3 370.3 259.7 388.8 254.7C407.3 249.7 425.7 229.3 444.2 219.7C462.7 210 481.3 211 490.7 211.5L500 212L500 501L490.7 501C481.3 501 462.7 501 444.2 501C425.7 501 407.3 501 388.8 501C370.3 501 351.7 501 333.2 501C314.7 501 296.3 501 277.8 501C259.3 501 240.7 501 222.2 501C203.7 501 185.3 501 166.8 501C148.3 501 129.7 501 111.2 501C92.7 501 74.3 501 55.8 501C37.3 501 18.7 501 9.3 501L0 501Z" fill="#00a27c"></path><path d="M0 272L9.3 264C18.7 256 37.3 240 55.8 234C74.3 228 92.7 232 111.2 242.3C129.7 252.7 148.3 269.3 166.8 268.7C185.3 268 203.7 250 222.2 250.3C240.7 250.7 259.3 269.3 277.8 272.3C296.3 275.3 314.7 262.7 333.2 259.5C351.7 256.3 370.3 262.7 388.8 269.8C407.3 277 425.7 285 444.2 289.2C462.7 293.3 481.3 293.7 490.7 293.8L500 294L500 501L490.7 501C481.3 501 462.7 501 444.2 501C425.7 501 407.3 501 388.8 501C370.3 501 351.7 501 333.2 501C314.7 501 296.3 501 277.8 501C259.3 501 240.7 501 222.2 501C203.7 501 185.3 501 166.8 501C148.3 501 129.7 501 111.2 501C92.7 501 74.3 501 55.8 501C37.3 501 18.7 501 9.3 501L0 501Z" fill="#009678"></path><path d="M0 282L9.3 283.7C18.7 285.3 37.3 288.7 55.8 289.5C74.3 290.3 92.7 288.7 111.2 292.8C129.7 297 148.3 307 166.8 303.8C185.3 300.7 203.7 284.3 222.2 279.3C240.7 274.3 259.3 280.7 277.8 283.2C296.3 285.7 314.7 284.3 333.2 282.7C351.7 281 370.3 279 388.8 277.3C407.3 275.7 425.7 274.3 444.2 283.8C462.7 293.3 481.3 313.7 490.7 323.8L500 334L500 501L490.7 501C481.3 501 462.7 501 444.2 501C425.7 501 407.3 501 388.8 501C370.3 501 351.7 501 333.2 501C314.7 501 296.3 501 277.8 501C259.3 501 240.7 501 222.2 501C203.7 501 185.3 501 166.8 501C148.3 501 129.7 501 111.2 501C92.7 501 74.3 501 55.8 501C37.3 501 18.7 501 9.3 501L0 501Z" fill="#008b73"></path><path d="M0 360L9.3 354.5C18.7 349 37.3 338 55.8 333.8C74.3 329.7 92.7 332.3 111.2 338.7C129.7 345 148.3 355 166.8 350C185.3 345 203.7 325 222.2 324.8C240.7 324.7 259.3 344.3 277.8 347C296.3 349.7 314.7 335.3 333.2 334.7C351.7 334 370.3 347 388.8 347.3C407.3 347.7 425.7 335.3 444.2 334.3C462.7 333.3 481.3 343.7 490.7 348.8L500 354L500 501L490.7 501C481.3 501 462.7 501 444.2 501C425.7 501 407.3 501 388.8 501C370.3 501 351.7 501 333.2 501C314.7 501 296.3 501 277.8 501C259.3 501 240.7 501 222.2 501C203.7 501 185.3 501 166.8 501C148.3 501 129.7 501 111.2 501C92.7 501 74.3 501 55.8 501C37.3 501 18.7 501 9.3 501L0 501Z" fill="#00806e"></path><path d="M0 377L9.3 377.8C18.7 378.7 37.3 380.3 55.8 375.8C74.3 371.3 92.7 360.7 111.2 357.7C129.7 354.7 148.3 359.3 166.8 368C185.3 376.7 203.7 389.3 222.2 390.8C240.7 392.3 259.3 382.7 277.8 377.2C296.3 371.7 314.7 370.3 333.2 372.3C351.7 374.3 370.3 379.7 388.8 378C407.3 376.3 425.7 367.7 444.2 368.8C462.7 370 481.3 381 490.7 386.5L500 392L500 501L490.7 501C481.3 501 462.7 501 444.2 501C425.7 501 407.3 501 388.8 501C370.3 501 351.7 501 333.2 501C314.7 501 296.3 501 277.8 501C259.3 501 240.7 501 222.2 501C203.7 501 185.3 501 166.8 501C148.3 501 129.7 501 111.2 501C92.7 501 74.3 501 55.8 501C37.3 501 18.7 501 9.3 501L0 501Z" fill="#037467"></path><path d="M0 401L9.3 401.7C18.7 402.3 37.3 403.7 55.8 406.3C74.3 409 92.7 413 111.2 417.7C129.7 422.3 148.3 427.7 166.8 427.2C185.3 426.7 203.7 420.3 222.2 415.5C240.7 410.7 259.3 407.3 277.8 403.5C296.3 399.7 314.7 395.3 333.2 400.3C351.7 405.3 370.3 419.7 388.8 420.2C407.3 420.7 425.7 407.3 444.2 404C462.7 400.7 481.3 407.3 490.7 410.7L500 414L500 501L490.7 501C481.3 501 462.7 501 444.2 501C425.7 501 407.3 501 388.8 501C370.3 501 351.7 501 333.2 501C314.7 501 296.3 501 277.8 501C259.3 501 240.7 501 222.2 501C203.7 501 185.3 501 166.8 501C148.3 501 129.7 501 111.2 501C92.7 501 74.3 501 55.8 501C37.3 501 18.7 501 9.3 501L0 501Z" fill="#0a6961"></path><path d="M0 433L9.3 437.5C18.7 442 37.3 451 55.8 454.3C74.3 457.7 92.7 455.3 111.2 450.8C129.7 446.3 148.3 439.7 166.8 438C185.3 436.3 203.7 439.7 222.2 439.5C240.7 439.3 259.3 435.7 277.8 439.2C296.3 442.7 314.7 453.3 333.2 457.2C351.7 461 370.3 458 388.8 457.7C407.3 457.3 425.7 459.7 444.2 456.3C462.7 453 481.3 444 490.7 439.5L500 435L500 501L490.7 501C481.3 501 462.7 501 444.2 501C425.7 501 407.3 501 388.8 501C370.3 501 351.7 501 333.2 501C314.7 501 296.3 501 277.8 501C259.3 501 240.7 501 222.2 501C203.7 501 185.3 501 166.8 501C148.3 501 129.7 501 111.2 501C92.7 501 74.3 501 55.8 501C37.3 501 18.7 501 9.3 501L0 501Z" fill="#115e59"></path></svg>