<svg id="visual" viewBox="0 0 1960 1540" width="1960" height="1540" xmlns="http://www.w3.org/2000/svg" xmlns:xlink="http://www.w3.org/1999/xlink" version="1.1"><g stroke-width="1" stroke-linejoin="bevel"><path d="M988 789L964 932L1159.3 925Z" fill="#c6c6c6" stroke="#c6c6c6"></path><path d="M1159.3 925L1172.3 774L988 789Z" fill="#bdbdbd" stroke="#bdbdbd"></path><path d="M964 932L991 1072L1159.3 925Z" fill="#919191" stroke="#919191"></path><path d="M1312.7 1066L1301.7 900L1159.3 925Z" fill="#cfcfcf" stroke="#cfcfcf"></path><path d="M1159.3 925L1301.7 900L1172.3 774Z" fill="#898989" stroke="#898989"></path><path d="M991 1072L1143.3 1108L1159.3 925Z" fill="#ababab" stroke="#ababab"></path><path d="M812.7 762L803.7 923L964 932Z" fill="#ababab" stroke="#ababab"></path><path d="M964 932L818.7 1084L991 1072Z" fill="#cfcfcf" stroke="#cfcfcf"></path><path d="M1172.3 774L982 623L988 789Z" fill="#bdbdbd" stroke="#bdbdbd"></path><path d="M988 789L812.7 762L964 932Z" fill="#999999" stroke="#999999"></path><path d="M982 623L812.7 762L988 789Z" fill="#919191" stroke="#919191"></path><path d="M1301.7 900L1328.7 802L1172.3 774Z" fill="#787878" stroke="#787878"></path><path d="M1172.3 774L1160.3 613L982 623Z" fill="#898989" stroke="#898989"></path><path d="M1308.7 589L1160.3 613L1172.3 774Z" fill="#919191" stroke="#919191"></path><path d="M1143.3 1108L1312.7 1066L1159.3 925Z" fill="#898989" stroke="#898989"></path><path d="M1301.7 900L1465 927L1328.7 802Z" fill="#cfcfcf" stroke="#cfcfcf"></path><path d="M803.7 923L818.7 1084L964 932Z" fill="#919191" stroke="#919191"></path><path d="M991 1072L1010 1198L1143.3 1108Z" fill="#ababab" stroke="#ababab"></path><path d="M818.7 1084L1010 1198L991 1072Z" fill="#bdbdbd" stroke="#bdbdbd"></path><path d="M1143.3 1108L1268.7 1209L1312.7 1066Z" fill="#808080" stroke="#808080"></path><path d="M982 623L811.7 655L812.7 762Z" fill="#cfcfcf" stroke="#cfcfcf"></path><path d="M812.7 762L653.3 885L803.7 923Z" fill="#999999" stroke="#999999"></path><path d="M1010 1198L1109.3 1224L1143.3 1108Z" fill="#c6c6c6" stroke="#c6c6c6"></path><path d="M1328.7 802L1308.7 589L1172.3 774Z" fill="#b4b4b4" stroke="#b4b4b4"></path><path d="M1160.3 613L1135.3 493L982 623Z" fill="#bdbdbd" stroke="#bdbdbd"></path><path d="M1308.7 589L1135.3 493L1160.3 613Z" fill="#919191" stroke="#919191"></path><path d="M982 623L793.7 470L811.7 655Z" fill="#919191" stroke="#919191"></path><path d="M1109.3 1224L1268.7 1209L1143.3 1108Z" fill="#b4b4b4" stroke="#b4b4b4"></path><path d="M616.3 754L653.3 885L812.7 762Z" fill="#808080" stroke="#808080"></path><path d="M803.7 923L626.3 1108L818.7 1084Z" fill="#ababab" stroke="#ababab"></path><path d="M1449 1116L1465 927L1312.7 1066Z" fill="#cfcfcf" stroke="#cfcfcf"></path><path d="M1312.7 1066L1465 927L1301.7 900Z" fill="#999999" stroke="#999999"></path><path d="M1328.7 802L1464 748L1308.7 589Z" fill="#a2a2a2" stroke="#a2a2a2"></path><path d="M1465 927L1464 748L1328.7 802Z" fill="#b4b4b4" stroke="#b4b4b4"></path><path d="M626.3 1108L789.7 1206L818.7 1084Z" fill="#b4b4b4" stroke="#b4b4b4"></path><path d="M818.7 1084L789.7 1206L1010 1198Z" fill="#a2a2a2" stroke="#a2a2a2"></path><path d="M1010 1198L973 1381L1109.3 1224Z" fill="#898989" stroke="#898989"></path><path d="M1135.3 493L957 447L982 623Z" fill="#999999" stroke="#999999"></path><path d="M1439 1210L1449 1116L1312.7 1066Z" fill="#999999" stroke="#999999"></path><path d="M656.3 628L812.7 762L811.7 655Z" fill="#999999" stroke="#999999"></path><path d="M656.3 628L616.3 754L812.7 762Z" fill="#bdbdbd" stroke="#bdbdbd"></path><path d="M793.7 470L656.3 628L811.7 655Z" fill="#c6c6c6" stroke="#c6c6c6"></path><path d="M957 447L793.7 470L982 623Z" fill="#ababab" stroke="#ababab"></path><path d="M653.3 885L626.3 1108L803.7 923Z" fill="#a2a2a2" stroke="#a2a2a2"></path><path d="M459 919L626.3 1108L653.3 885Z" fill="#787878" stroke="#787878"></path><path d="M1308.7 1349L1439 1210L1268.7 1209Z" fill="#c6c6c6" stroke="#c6c6c6"></path><path d="M1268.7 1209L1439 1210L1312.7 1066Z" fill="#919191" stroke="#919191"></path><path d="M792.7 1378L973 1381L789.7 1206Z" fill="#c6c6c6" stroke="#c6c6c6"></path><path d="M789.7 1206L973 1381L1010 1198Z" fill="#808080" stroke="#808080"></path><path d="M1109.3 1224L1140.3 1401L1268.7 1209Z" fill="#808080" stroke="#808080"></path><path d="M1509 583L1343.7 442L1308.7 589Z" fill="#a2a2a2" stroke="#a2a2a2"></path><path d="M1308.7 589L1343.7 442L1135.3 493Z" fill="#a2a2a2" stroke="#a2a2a2"></path><path d="M1150.3 324L960 345L957 447Z" fill="#898989" stroke="#898989"></path><path d="M973 1381L1140.3 1401L1109.3 1224Z" fill="#a2a2a2" stroke="#a2a2a2"></path><path d="M1464 748L1509 583L1308.7 589Z" fill="#808080" stroke="#808080"></path><path d="M1629.3 621L1509 583L1464 748Z" fill="#bdbdbd" stroke="#bdbdbd"></path><path d="M1601.3 788L1464 748L1465 927Z" fill="#ababab" stroke="#ababab"></path><path d="M1601.3 788L1465 927L1667.3 949Z" fill="#ababab" stroke="#ababab"></path><path d="M1140.3 1401L1308.7 1349L1268.7 1209Z" fill="#787878" stroke="#787878"></path><path d="M1150.3 324L957 447L1135.3 493Z" fill="#c6c6c6" stroke="#c6c6c6"></path><path d="M957 447L960 345L793.7 470Z" fill="#787878" stroke="#787878"></path><path d="M626.3 1108L650.3 1226L789.7 1206Z" fill="#c6c6c6" stroke="#c6c6c6"></path><path d="M1667.3 949L1465 927L1663.3 1107Z" fill="#a2a2a2" stroke="#a2a2a2"></path><path d="M1343.7 442L1150.3 324L1135.3 493Z" fill="#787878" stroke="#787878"></path><path d="M501 620L517 742L616.3 754Z" fill="#a2a2a2" stroke="#a2a2a2"></path><path d="M616.3 754L517 742L653.3 885Z" fill="#bdbdbd" stroke="#bdbdbd"></path><path d="M626.3 1108L524 1242L650.3 1226Z" fill="#787878" stroke="#787878"></path><path d="M501 620L616.3 754L656.3 628Z" fill="#b4b4b4" stroke="#b4b4b4"></path><path d="M650.3 1226L792.7 1378L789.7 1206Z" fill="#919191" stroke="#919191"></path><path d="M973 1381L960 1540L1140.3 1401Z" fill="#cfcfcf" stroke="#cfcfcf"></path><path d="M517 742L459 919L653.3 885Z" fill="#c6c6c6" stroke="#c6c6c6"></path><path d="M1343.7 442L1324.7 324L1150.3 324Z" fill="#bdbdbd" stroke="#bdbdbd"></path><path d="M1467 318L1324.7 324L1343.7 442Z" fill="#cfcfcf" stroke="#cfcfcf"></path><path d="M1663.3 1107L1465 927L1449 1116Z" fill="#bdbdbd" stroke="#bdbdbd"></path><path d="M528 447L501 620L656.3 628Z" fill="#919191" stroke="#919191"></path><path d="M309.7 754L348.7 963L459 919Z" fill="#b4b4b4" stroke="#b4b4b4"></path><path d="M641.3 423L656.3 628L793.7 470Z" fill="#919191" stroke="#919191"></path><path d="M780.7 290L641.3 423L793.7 470Z" fill="#ababab" stroke="#ababab"></path><path d="M1606.3 499L1500 437L1509 583Z" fill="#919191" stroke="#919191"></path><path d="M1509 583L1500 437L1343.7 442Z" fill="#999999" stroke="#999999"></path><path d="M1629.3 621L1464 748L1601.3 788Z" fill="#a2a2a2" stroke="#a2a2a2"></path><path d="M1798.7 774L1629.3 621L1601.3 788Z" fill="#999999" stroke="#999999"></path><path d="M459 919L470 1113L626.3 1108Z" fill="#898989" stroke="#898989"></path><path d="M650.3 1226L687.3 1398L792.7 1378Z" fill="#c6c6c6" stroke="#c6c6c6"></path><path d="M501 1349L687.3 1398L650.3 1226Z" fill="#787878" stroke="#787878"></path><path d="M835.7 1540L960 1540L973 1381Z" fill="#787878" stroke="#787878"></path><path d="M1636.3 1246L1663.3 1107L1449 1116Z" fill="#919191" stroke="#919191"></path><path d="M1636.3 1246L1449 1116L1439 1210Z" fill="#bdbdbd" stroke="#bdbdbd"></path><path d="M851.7 155L780.7 290L960 345Z" fill="#bdbdbd" stroke="#bdbdbd"></path><path d="M960 345L780.7 290L793.7 470Z" fill="#a2a2a2" stroke="#a2a2a2"></path><path d="M1005 161L960 345L1150.3 324Z" fill="#999999" stroke="#999999"></path><path d="M470 1113L524 1242L626.3 1108Z" fill="#898989" stroke="#898989"></path><path d="M1629.3 621L1606.3 499L1509 583Z" fill="#b4b4b4" stroke="#b4b4b4"></path><path d="M1500 437L1467 318L1343.7 442Z" fill="#999999" stroke="#999999"></path><path d="M835.7 1540L973 1381L792.7 1378Z" fill="#898989" stroke="#898989"></path><path d="M1140.3 1401L1324.7 1540L1308.7 1349Z" fill="#787878" stroke="#787878"></path><path d="M960 1540L1169.3 1540L1140.3 1401Z" fill="#808080" stroke="#808080"></path><path d="M1308.7 1349L1488 1409L1439 1210Z" fill="#c6c6c6" stroke="#c6c6c6"></path><path d="M498 336L528 447L641.3 423Z" fill="#cfcfcf" stroke="#cfcfcf"></path><path d="M641.3 423L528 447L656.3 628Z" fill="#cfcfcf" stroke="#cfcfcf"></path><path d="M1324.7 1540L1488 1409L1308.7 1349Z" fill="#808080" stroke="#808080"></path><path d="M1488 1409L1636.3 1246L1439 1210Z" fill="#a2a2a2" stroke="#a2a2a2"></path><path d="M1622.3 281L1467 318L1500 437Z" fill="#999999" stroke="#999999"></path><path d="M1111.3 117L1005 161L1150.3 324Z" fill="#b4b4b4" stroke="#b4b4b4"></path><path d="M780.7 290L661.3 311L641.3 423Z" fill="#ababab" stroke="#ababab"></path><path d="M677.3 1540L835.7 1540L792.7 1378Z" fill="#787878" stroke="#787878"></path><path d="M677.3 1540L792.7 1378L687.3 1398Z" fill="#808080" stroke="#808080"></path><path d="M1111.3 117L1150.3 324L1293.7 127Z" fill="#a2a2a2" stroke="#a2a2a2"></path><path d="M780.7 290L670.3 180L661.3 311Z" fill="#c6c6c6" stroke="#c6c6c6"></path><path d="M1169.3 1540L1324.7 1540L1140.3 1401Z" fill="#ababab" stroke="#ababab"></path><path d="M459 919L348.7 963L470 1113Z" fill="#787878" stroke="#787878"></path><path d="M365.7 1202L501 1349L524 1242Z" fill="#cfcfcf" stroke="#cfcfcf"></path><path d="M309.7 754L459 919L517 742Z" fill="#ababab" stroke="#ababab"></path><path d="M309.7 754L517 742L326.7 631Z" fill="#a2a2a2" stroke="#a2a2a2"></path><path d="M1815.7 1069L1777.7 946L1663.3 1107Z" fill="#c6c6c6" stroke="#c6c6c6"></path><path d="M1663.3 1107L1777.7 946L1667.3 949Z" fill="#bdbdbd" stroke="#bdbdbd"></path><path d="M1667.3 949L1798.7 774L1601.3 788Z" fill="#808080" stroke="#808080"></path><path d="M1629.3 621L1833.7 472L1606.3 499Z" fill="#c6c6c6" stroke="#c6c6c6"></path><path d="M365.7 1202L524 1242L470 1113Z" fill="#c6c6c6" stroke="#c6c6c6"></path><path d="M524 1242L501 1349L650.3 1226Z" fill="#bdbdbd" stroke="#bdbdbd"></path><path d="M1777.7 946L1798.7 774L1667.3 949Z" fill="#808080" stroke="#808080"></path><path d="M1005 161L851.7 155L960 345Z" fill="#808080" stroke="#808080"></path><path d="M1293.7 127L1150.3 324L1324.7 324Z" fill="#a2a2a2" stroke="#a2a2a2"></path><path d="M1005 161L946 0L851.7 155Z" fill="#808080" stroke="#808080"></path><path d="M326.7 631L517 742L501 620Z" fill="#999999" stroke="#999999"></path><path d="M305.7 1050L470 1113L348.7 963Z" fill="#b4b4b4" stroke="#b4b4b4"></path><path d="M305.7 1050L365.7 1202L470 1113Z" fill="#808080" stroke="#808080"></path><path d="M507 1540L677.3 1540L687.3 1398Z" fill="#898989" stroke="#898989"></path><path d="M347.7 495L326.7 631L501 620Z" fill="#898989" stroke="#898989"></path><path d="M347.7 495L501 620L528 447Z" fill="#999999" stroke="#999999"></path><path d="M170.3 942L305.7 1050L348.7 963Z" fill="#a2a2a2" stroke="#a2a2a2"></path><path d="M670.3 180L498 336L661.3 311Z" fill="#999999" stroke="#999999"></path><path d="M661.3 311L498 336L641.3 423Z" fill="#787878" stroke="#787878"></path><path d="M1800.7 1239L1815.7 1069L1663.3 1107Z" fill="#c6c6c6" stroke="#c6c6c6"></path><path d="M1777.7 946L1960 903L1798.7 774Z" fill="#787878" stroke="#787878"></path><path d="M1800.7 1239L1663.3 1107L1636.3 1246Z" fill="#787878" stroke="#787878"></path><path d="M1442 141L1293.7 127L1324.7 324Z" fill="#b4b4b4" stroke="#b4b4b4"></path><path d="M1960 806L1808.7 640L1798.7 774Z" fill="#bdbdbd" stroke="#bdbdbd"></path><path d="M1798.7 774L1808.7 640L1629.3 621Z" fill="#808080" stroke="#808080"></path><path d="M1606.3 499L1622.3 281L1500 437Z" fill="#c6c6c6" stroke="#c6c6c6"></path><path d="M1467 318L1442 141L1324.7 324Z" fill="#ababab" stroke="#ababab"></path><path d="M1498 1540L1637.3 1407L1488 1409Z" fill="#999999" stroke="#999999"></path><path d="M1488 1409L1637.3 1407L1636.3 1246Z" fill="#ababab" stroke="#ababab"></path><path d="M851.7 155L670.3 180L780.7 290Z" fill="#919191" stroke="#919191"></path><path d="M815.7 0L670.3 180L851.7 155Z" fill="#999999" stroke="#999999"></path><path d="M1324.7 1540L1498 1540L1488 1409Z" fill="#c6c6c6" stroke="#c6c6c6"></path><path d="M498 336L347.7 495L528 447Z" fill="#ababab" stroke="#ababab"></path><path d="M1803.7 321L1622.3 281L1606.3 499Z" fill="#898989" stroke="#898989"></path><path d="M1637.3 1407L1800.7 1239L1636.3 1246Z" fill="#919191" stroke="#919191"></path><path d="M1622.3 281L1442 141L1467 318Z" fill="#919191" stroke="#919191"></path><path d="M338.7 1375L507 1540L501 1349Z" fill="#a2a2a2" stroke="#a2a2a2"></path><path d="M501 1349L507 1540L687.3 1398Z" fill="#a2a2a2" stroke="#a2a2a2"></path><path d="M1808.7 640L1833.7 472L1629.3 621Z" fill="#808080" stroke="#808080"></path><path d="M1960 592L1833.7 472L1808.7 640Z" fill="#919191" stroke="#919191"></path><path d="M1293.7 127L1113.3 0L1111.3 117Z" fill="#919191" stroke="#919191"></path><path d="M1111.3 117L946 0L1005 161Z" fill="#787878" stroke="#787878"></path><path d="M1319.7 0L1113.3 0L1293.7 127Z" fill="#b4b4b4" stroke="#b4b4b4"></path><path d="M365.7 1202L338.7 1375L501 1349Z" fill="#808080" stroke="#808080"></path><path d="M160.3 1271L338.7 1375L365.7 1202Z" fill="#a2a2a2" stroke="#a2a2a2"></path><path d="M1113.3 0L946 0L1111.3 117Z" fill="#bdbdbd" stroke="#bdbdbd"></path><path d="M1498 1540L1653.3 1540L1637.3 1407Z" fill="#999999" stroke="#999999"></path><path d="M1637.3 1407L1816.7 1406L1800.7 1239Z" fill="#787878" stroke="#787878"></path><path d="M309.7 754L170.3 942L348.7 963Z" fill="#cfcfcf" stroke="#cfcfcf"></path><path d="M305.7 1050L195.3 1104L365.7 1202Z" fill="#bdbdbd" stroke="#bdbdbd"></path><path d="M148.3 741L170.3 942L309.7 754Z" fill="#cfcfcf" stroke="#cfcfcf"></path><path d="M190.3 653L309.7 754L326.7 631Z" fill="#787878" stroke="#787878"></path><path d="M170.3 942L195.3 1104L305.7 1050Z" fill="#808080" stroke="#808080"></path><path d="M181.3 425L190.3 653L347.7 495Z" fill="#ababab" stroke="#ababab"></path><path d="M347.7 495L190.3 653L326.7 631Z" fill="#b4b4b4" stroke="#b4b4b4"></path><path d="M1960 1082L1960 903L1815.7 1069Z" fill="#808080" stroke="#808080"></path><path d="M1815.7 1069L1960 903L1777.7 946Z" fill="#c6c6c6" stroke="#c6c6c6"></path><path d="M1960 903L1960 806L1798.7 774Z" fill="#898989" stroke="#898989"></path><path d="M946 0L815.7 0L851.7 155Z" fill="#c6c6c6" stroke="#c6c6c6"></path><path d="M468 158L323.7 316L498 336Z" fill="#999999" stroke="#999999"></path><path d="M498 336L323.7 316L347.7 495Z" fill="#cfcfcf" stroke="#cfcfcf"></path><path d="M1442 141L1319.7 0L1293.7 127Z" fill="#a2a2a2" stroke="#a2a2a2"></path><path d="M1491 0L1319.7 0L1442 141Z" fill="#898989" stroke="#898989"></path><path d="M1645.3 139L1442 141L1622.3 281Z" fill="#cfcfcf" stroke="#cfcfcf"></path><path d="M190.3 653L148.3 741L309.7 754Z" fill="#bdbdbd" stroke="#bdbdbd"></path><path d="M1960 1196L1960 1082L1815.7 1069Z" fill="#919191" stroke="#919191"></path><path d="M1960 1196L1815.7 1069L1800.7 1239Z" fill="#919191" stroke="#919191"></path><path d="M468 158L498 336L670.3 180Z" fill="#919191" stroke="#919191"></path><path d="M0 593L0 795L148.3 741Z" fill="#787878" stroke="#787878"></path><path d="M1783.7 1540L1816.7 1406L1637.3 1407Z" fill="#919191" stroke="#919191"></path><path d="M1960 341L1803.7 321L1833.7 472Z" fill="#808080" stroke="#808080"></path><path d="M1833.7 472L1803.7 321L1606.3 499Z" fill="#cfcfcf" stroke="#cfcfcf"></path><path d="M661.3 0L468 158L670.3 180Z" fill="#c6c6c6" stroke="#c6c6c6"></path><path d="M1803.7 321L1645.3 139L1622.3 281Z" fill="#cfcfcf" stroke="#cfcfcf"></path><path d="M1960 806L1960 592L1808.7 640Z" fill="#ababab" stroke="#ababab"></path><path d="M1960 1351L1960 1196L1800.7 1239Z" fill="#898989" stroke="#898989"></path><path d="M815.7 0L661.3 0L670.3 180Z" fill="#919191" stroke="#919191"></path><path d="M1645.3 139L1491 0L1442 141Z" fill="#b4b4b4" stroke="#b4b4b4"></path><path d="M0 1047L195.3 1104L170.3 942Z" fill="#b4b4b4" stroke="#b4b4b4"></path><path d="M0 1239L160.3 1271L195.3 1104Z" fill="#808080" stroke="#808080"></path><path d="M195.3 1104L160.3 1271L365.7 1202Z" fill="#787878" stroke="#787878"></path><path d="M338.7 1375L322.7 1540L507 1540Z" fill="#898989" stroke="#898989"></path><path d="M1653.3 1540L1783.7 1540L1637.3 1407Z" fill="#bdbdbd" stroke="#bdbdbd"></path><path d="M1816.7 1406L1960 1351L1800.7 1239Z" fill="#a2a2a2" stroke="#a2a2a2"></path><path d="M147.3 324L181.3 425L323.7 316Z" fill="#787878" stroke="#787878"></path><path d="M323.7 316L181.3 425L347.7 495Z" fill="#919191" stroke="#919191"></path><path d="M193.3 1540L322.7 1540L338.7 1375Z" fill="#c6c6c6" stroke="#c6c6c6"></path><path d="M1960 592L1960 446L1833.7 472Z" fill="#787878" stroke="#787878"></path><path d="M1756.7 0L1603.3 0L1645.3 139Z" fill="#999999" stroke="#999999"></path><path d="M1960 1540L1960 1351L1816.7 1406Z" fill="#b4b4b4" stroke="#b4b4b4"></path><path d="M1778.7 115L1645.3 139L1803.7 321Z" fill="#787878" stroke="#787878"></path><path d="M1645.3 139L1603.3 0L1491 0Z" fill="#787878" stroke="#787878"></path><path d="M1960 188L1778.7 115L1803.7 321Z" fill="#bdbdbd" stroke="#bdbdbd"></path><path d="M1960 446L1960 341L1833.7 472Z" fill="#898989" stroke="#898989"></path><path d="M661.3 0L466 0L468 158Z" fill="#898989" stroke="#898989"></path><path d="M468 158L291.7 141L323.7 316Z" fill="#919191" stroke="#919191"></path><path d="M148.3 741L0 892L170.3 942Z" fill="#ababab" stroke="#ababab"></path><path d="M0 795L0 892L148.3 741Z" fill="#c6c6c6" stroke="#c6c6c6"></path><path d="M322.7 0L291.7 141L468 158Z" fill="#bdbdbd" stroke="#bdbdbd"></path><path d="M0 593L190.3 653L181.3 425Z" fill="#919191" stroke="#919191"></path><path d="M0 593L148.3 741L190.3 653Z" fill="#808080" stroke="#808080"></path><path d="M166.3 156L147.3 324L323.7 316Z" fill="#999999" stroke="#999999"></path><path d="M0 892L0 1047L170.3 942Z" fill="#a2a2a2" stroke="#a2a2a2"></path><path d="M160.3 1271L135.3 1423L338.7 1375Z" fill="#787878" stroke="#787878"></path><path d="M0 1379L135.3 1423L160.3 1271Z" fill="#898989" stroke="#898989"></path><path d="M135.3 1423L193.3 1540L338.7 1375Z" fill="#919191" stroke="#919191"></path><path d="M0 482L0 593L181.3 425Z" fill="#cfcfcf" stroke="#cfcfcf"></path><path d="M1960 0L1756.7 0L1778.7 115Z" fill="#808080" stroke="#808080"></path><path d="M1778.7 115L1756.7 0L1645.3 139Z" fill="#ababab" stroke="#ababab"></path><path d="M1783.7 1540L1960 1540L1816.7 1406Z" fill="#cfcfcf" stroke="#cfcfcf"></path><path d="M0 1047L0 1239L195.3 1104Z" fill="#a2a2a2" stroke="#a2a2a2"></path><path d="M135.3 1423L0 1540L193.3 1540Z" fill="#919191" stroke="#919191"></path><path d="M0 331L0 482L181.3 425Z" fill="#bdbdbd" stroke="#bdbdbd"></path><path d="M0 331L181.3 425L147.3 324Z" fill="#999999" stroke="#999999"></path><path d="M1960 341L1960 188L1803.7 321Z" fill="#c6c6c6" stroke="#c6c6c6"></path><path d="M466 0L322.7 0L468 158Z" fill="#a2a2a2" stroke="#a2a2a2"></path><path d="M291.7 141L166.3 156L323.7 316Z" fill="#919191" stroke="#919191"></path><path d="M139.3 0L166.3 156L291.7 141Z" fill="#999999" stroke="#999999"></path><path d="M0 1239L0 1379L160.3 1271Z" fill="#bdbdbd" stroke="#bdbdbd"></path><path d="M0 152L0 331L147.3 324Z" fill="#bdbdbd" stroke="#bdbdbd"></path><path d="M0 1379L0 1540L135.3 1423Z" fill="#919191" stroke="#919191"></path><path d="M1960 188L1960 0L1778.7 115Z" fill="#808080" stroke="#808080"></path><path d="M322.7 0L139.3 0L291.7 141Z" fill="#999999" stroke="#999999"></path><path d="M166.3 156L0 152L147.3 324Z" fill="#808080" stroke="#808080"></path><path d="M139.3 0L0 152L166.3 156Z" fill="#787878" stroke="#787878"></path><path d="M139.3 0L0 0L0 152Z" fill="#808080" stroke="#808080"></path></g></svg>