<svg id="visual" viewBox="0 0 960 540" width="960" height="540" xmlns="http://www.w3.org/2000/svg" xmlns:xlink="http://www.w3.org/1999/xlink" version="1.1"><rect x="0" y="0" width="960" height="540" fill="#0f2927"></rect><defs><linearGradient id="grad1_0" x1="43.8%" y1="0%" x2="100%" y2="100%"><stop offset="14.444444444444446%" stop-color="#0f766e" stop-opacity="1"></stop><stop offset="85.55555555555554%" stop-color="#0f766e" stop-opacity="1"></stop></linearGradient></defs><defs><linearGradient id="grad1_1" x1="43.8%" y1="0%" x2="100%" y2="100%"><stop offset="14.444444444444446%" stop-color="#0f766e" stop-opacity="1"></stop><stop offset="85.55555555555554%" stop-color="#125b55" stop-opacity="1"></stop></linearGradient></defs><defs><linearGradient id="grad1_2" x1="43.8%" y1="0%" x2="100%" y2="100%"><stop offset="14.444444444444446%" stop-color="#12413e" stop-opacity="1"></stop><stop offset="85.55555555555554%" stop-color="#125b55" stop-opacity="1"></stop></linearGradient></defs><defs><linearGradient id="grad1_3" x1="43.8%" y1="0%" x2="100%" y2="100%"><stop offset="14.444444444444446%" stop-color="#12413e" stop-opacity="1"></stop><stop offset="85.55555555555554%" stop-color="#0f2927" stop-opacity="1"></stop></linearGradient></defs><defs><linearGradient id="grad2_0" x1="0%" y1="0%" x2="56.3%" y2="100%"><stop offset="14.444444444444446%" stop-color="#0f766e" stop-opacity="1"></stop><stop offset="85.55555555555554%" stop-color="#0f766e" stop-opacity="1"></stop></linearGradient></defs><defs><linearGradient id="grad2_1" x1="0%" y1="0%" x2="56.3%" y2="100%"><stop offset="14.444444444444446%" stop-color="#125b55" stop-opacity="1"></stop><stop offset="85.55555555555554%" stop-color="#0f766e" stop-opacity="1"></stop></linearGradient></defs><defs><linearGradient id="grad2_2" x1="0%" y1="0%" x2="56.3%" y2="100%"><stop offset="14.444444444444446%" stop-color="#125b55" stop-opacity="1"></stop><stop offset="85.55555555555554%" stop-color="#12413e" stop-opacity="1"></stop></linearGradient></defs><defs><linearGradient id="grad2_3" x1="0%" y1="0%" x2="56.3%" y2="100%"><stop offset="14.444444444444446%" stop-color="#0f2927" stop-opacity="1"></stop><stop offset="85.55555555555554%" stop-color="#12413e" stop-opacity="1"></stop></linearGradient></defs><g transform="translate(960, 0)"><path d="M0 540C-48 503.5 -96 467 -145.2 447C-194.4 427 -244.8 423.7 -295.1 406.1C-345.3 388.6 -395.5 356.9 -433.6 315.1C-471.8 273.2 -497.8 221.1 -513.6 166.9C-529.3 112.7 -534.6 56.3 -540 0L0 0Z" fill="#113532"></path><path d="M0 405C-36 377.6 -72 350.2 -108.9 335.2C-145.8 320.3 -183.6 317.7 -221.3 304.6C-259 291.4 -296.6 267.7 -325.2 236.3C-353.8 204.9 -373.4 165.8 -385.2 125.2C-397 84.5 -401 42.2 -405 0L0 0Z" fill="#134e49"></path><path d="M0 270C-24 251.7 -48 233.5 -72.6 223.5C-97.2 213.5 -122.4 211.8 -147.5 203.1C-172.7 194.3 -197.8 178.5 -216.8 157.5C-235.9 136.6 -248.9 110.5 -256.8 83.4C-264.6 56.3 -267.3 28.2 -270 0L0 0Z" fill="#116862"></path><path d="M0 135C-12 125.9 -24 116.7 -36.3 111.7C-48.6 106.8 -61.2 105.9 -73.8 101.5C-86.3 97.1 -98.9 89.2 -108.4 78.8C-117.9 68.3 -124.5 55.3 -128.4 41.7C-132.3 28.2 -133.7 14.1 -135 0L0 0Z" fill="#0f766e"></path></g><g transform="translate(0, 540)"><path d="M0 -540C57 -535.5 114.1 -531 165.3 -508.8C216.6 -486.7 262.1 -446.8 293.3 -403.7C324.5 -360.6 341.4 -314.1 381 -276.8C420.7 -239.6 483.3 -211.5 513.6 -166.9C543.9 -122.3 541.9 -61.1 540 0L0 0Z" fill="#113532"></path><path d="M0 -405C42.8 -401.6 85.5 -398.2 124 -381.6C162.4 -365 196.6 -335.1 220 -302.8C243.4 -270.4 256 -235.6 285.8 -207.6C315.6 -179.7 362.5 -158.6 385.2 -125.2C407.9 -91.7 406.5 -45.8 405 0L0 0Z" fill="#134e49"></path><path d="M0 -270C28.5 -267.7 57 -265.5 82.7 -254.4C108.3 -243.3 131.1 -223.4 146.7 -201.8C162.2 -180.3 170.7 -157.1 190.5 -138.4C210.4 -119.8 241.6 -105.7 256.8 -83.4C271.9 -61.1 271 -30.6 270 0L0 0Z" fill="#116862"></path><path d="M0 -135C14.3 -133.9 28.5 -132.7 41.3 -127.2C54.1 -121.7 65.5 -111.7 73.3 -100.9C81.1 -90.1 85.3 -78.5 95.3 -69.2C105.2 -59.9 120.8 -52.9 128.4 -41.7C136 -30.6 135.5 -15.3 135 0L0 0Z" fill="#0f766e"></path></g></svg>